<svg width="38" height="38" viewBox="0 0 38 38" fill="none" xmlns="http://www.w3.org/2000/svg">
<g clip-path="url(#clip0_1_268)">
<path d="M18.2084 4.75C22.1977 4.75 26.0236 6.33474 28.8444 9.1556C31.6653 11.9765 33.25 15.8024 33.25 19.7917C33.25 23.781 31.6653 27.6069 28.8444 30.4277C26.0236 33.2486 22.1977 34.8333 18.2084 34.8333C14.2191 34.8333 10.3931 33.2486 7.57229 30.4277C4.75143 27.6069 3.16669 23.781 3.16669 19.7917C3.16669 15.8024 4.75143 11.9765 7.57229 9.1556C10.3931 6.33474 14.2191 4.75 18.2084 4.75ZM18.2084 6.33333C14.639 6.33333 11.2158 7.75126 8.69188 10.2752C6.16795 12.7991 4.75002 16.2223 4.75002 19.7917C4.75002 23.361 6.16795 26.7842 8.69188 29.3081C11.2158 31.8321 14.639 33.25 18.2084 33.25C19.9757 33.25 21.7258 32.9019 23.3586 32.2255C24.9915 31.5492 26.4751 30.5579 27.7248 29.3081C28.9746 28.0584 29.9659 26.5748 30.6422 24.9419C31.3186 23.3091 31.6667 21.559 31.6667 19.7917C31.6667 16.2223 30.2488 12.7991 27.7248 10.2752C25.2009 7.75126 21.7777 6.33333 18.2084 6.33333Z" fill="#C5D9E0"/>
<path d="M18 34C25.732 34 32 27.732 32 20C32 12.268 25.732 6 18 6C10.268 6 4 12.268 4 20C4 27.732 10.268 34 18 34Z" fill="#C5D9E0"/>
<path d="M11.875 18.25L16.9395 23.3145C16.9887 23.3637 17.0554 23.3913 17.125 23.3913C17.1946 23.3913 17.2613 23.3637 17.3105 23.3145L31.125 9.5" stroke="black" stroke-width="1.2"/>
<path d="M30.8765 17.4572C31.4576 20.3993 31.0136 23.4517 29.6185 26.1063C28.2234 28.761 25.9613 30.8578 23.2086 32.0478C20.4559 33.2379 17.3787 33.4494 14.4891 32.6471C11.5995 31.8449 9.07177 30.0773 7.32659 27.6384C5.5814 25.1996 4.72402 22.2367 4.89714 19.2428C5.07026 16.2489 6.26343 13.4046 8.27809 11.1832C10.2927 8.96176 13.0074 7.49727 15.9702 7.03343C18.933 6.56958 21.9653 7.13435 24.5625 8.63375" stroke="black" stroke-linecap="round"/>
</g>
<defs>
<clipPath id="clip0_1_268">
<rect width="38" height="38" fill="white"/>
</clipPath>
</defs>
</svg>
