<svg width="21" height="23" viewBox="0 0 21 23" fill="none" xmlns="http://www.w3.org/2000/svg">
<path fill-rule="evenodd" clip-rule="evenodd" d="M2.60133 0.0440369C2.28077 0.0440369 1.97544 0.193805 1.76199 0.455739C1.54854 0.717671 1.44726 1.06689 1.48356 1.41572L3.32202 19.0814C3.43529 20.1532 3.90593 21.1414 4.64364 21.8566C5.38035 22.5705 6.33161 22.962 7.31529 22.956H13.656C14.6396 22.962 15.5909 22.5705 16.3277 21.8566C17.0654 21.1414 17.5359 20.1532 17.6492 19.0814L19.5162 1.41787C19.5531 1.06874 19.452 0.718967 19.2386 0.456547C19.0251 0.194127 18.7196 0.0440369 18.3986 0.0440369H2.60133Z" fill="#8FBFFA"/>
<path d="M4.41125 7.78735L5.55712 18.798C5.60681 19.2663 5.81258 19.6988 6.13481 20.0111C6.45728 20.3236 6.87378 20.4948 7.30437 20.4917H7.31183H13.6669C14.0975 20.4948 14.514 20.3236 14.8365 20.0111C15.1589 19.6985 15.3647 19.2666 15.4142 18.798L16.5779 7.78735H4.41125Z" fill="#2859C5"/>
</svg>
