<svg width="32" height="32" viewBox="0 0 32 32" fill="none" xmlns="http://www.w3.org/2000/svg">
<path d="M10.664 21.3334H15.9974M10.664 14.6667H21.3307M10 4.66669C7.92538 4.72935 6.68938 4.96002 5.83338 5.81602C4.66138 6.98935 4.66138 8.87602 4.66138 12.6507V21.3254C4.66138 25.1014 4.66138 26.988 5.83338 28.1614C7.00404 29.3334 8.89071 29.3334 12.6614 29.3334H19.328C23.1 29.3334 24.9854 29.3334 26.156 28.16C27.3294 26.988 27.3294 25.1014 27.3294 21.3254V12.6507C27.3294 8.87735 27.3294 6.98935 26.156 5.81602C25.3014 4.96002 24.064 4.72935 21.9894 4.66669" stroke="black" stroke-width="1.5" stroke-linecap="round" stroke-linejoin="round"/>
<path d="M9.99463 5.00002C9.99463 3.71202 11.04 2.66669 12.328 2.66669H19.6613C20.2801 2.66669 20.8736 2.91252 21.3112 3.3501C21.7488 3.78769 21.9946 4.38118 21.9946 5.00002C21.9946 5.61886 21.7488 6.21235 21.3112 6.64994C20.8736 7.08752 20.2801 7.33335 19.6613 7.33335H12.328C11.7091 7.33335 11.1156 7.08752 10.678 6.64994C10.2405 6.21235 9.99463 5.61886 9.99463 5.00002Z" stroke="black" stroke-width="1.5" stroke-linecap="round" stroke-linejoin="round"/>
</svg>
