<svg width="29" height="29" viewBox="0 0 29 29" fill="none" xmlns="http://www.w3.org/2000/svg">
<path d="M6.04167 12.0833C4.7125 12.0833 3.625 13.1708 3.625 14.5C3.625 15.8292 4.7125 16.9167 6.04167 16.9167C7.37083 16.9167 8.45833 15.8292 8.45833 14.5C8.45833 13.1708 7.37083 12.0833 6.04167 12.0833ZM22.9583 12.0833C21.6292 12.0833 20.5417 13.1708 20.5417 14.5C20.5417 15.8292 21.6292 16.9167 22.9583 16.9167C24.2875 16.9167 25.375 15.8292 25.375 14.5C25.375 13.1708 24.2875 12.0833 22.9583 12.0833ZM14.5 12.0833C13.1708 12.0833 12.0833 13.1708 12.0833 14.5C12.0833 15.8292 13.1708 16.9167 14.5 16.9167C15.8292 16.9167 16.9167 15.8292 16.9167 14.5C16.9167 13.1708 15.8292 12.0833 14.5 12.0833Z" fill="black"/>
</svg>
