<svg width="30" height="30" viewBox="0 0 30 30" fill="none" xmlns="http://www.w3.org/2000/svg">
<path d="M14.2176 3.1152C14.4563 3.1152 14.6852 3.21003 14.854 3.37881C15.0228 3.54759 15.1176 3.77651 15.1176 4.0152V5.2152H21.0372C21.6985 5.21504 22.3369 5.45757 22.8312 5.8968L26.2068 8.8968C26.4917 9.15011 26.7197 9.46089 26.8759 9.80867C27.0321 10.1565 27.1128 10.5334 27.1128 10.9146C27.1128 11.2958 27.0321 11.6727 26.8759 12.0205C26.7197 12.3683 26.4917 12.6791 26.2068 12.9324L22.8312 15.9324C22.337 16.3721 21.6987 16.615 21.0372 16.6152H15.1176V26.2152C15.1176 26.4539 15.0228 26.6828 14.854 26.8516C14.6852 27.0204 14.4563 27.1152 14.2176 27.1152C13.9789 27.1152 13.75 27.0204 13.5812 26.8516C13.4124 26.6828 13.3176 26.4539 13.3176 26.2152V16.6152H5.81761C5.10152 16.6152 4.41477 16.3307 3.90842 15.8244C3.40207 15.318 3.11761 14.6313 3.11761 13.9152V7.9152C3.11761 7.19912 3.40207 6.51236 3.90842 6.00602C4.41477 5.49967 5.10152 5.2152 5.81761 5.2152H13.3176V4.0152C13.3176 3.77651 13.4124 3.54759 13.5812 3.37881C13.75 3.21003 13.9789 3.1152 14.2176 3.1152ZM5.81761 14.8152H21.0372C21.258 14.8152 21.4711 14.7341 21.636 14.5872L25.0104 11.5872C25.1052 11.5028 25.181 11.3993 25.2329 11.2834C25.2849 11.1676 25.3117 11.0421 25.3117 10.9152C25.3117 10.7883 25.2849 10.6628 25.2329 10.547C25.181 10.4312 25.1052 10.3276 25.0104 10.2432L21.636 7.2432C21.4711 7.09632 21.258 7.01517 21.0372 7.0152H5.81761C5.57891 7.0152 5.34999 7.11002 5.18121 7.27881C5.01243 7.44759 4.91761 7.67651 4.91761 7.9152V13.9152C4.91761 14.1539 5.01243 14.3828 5.18121 14.5516C5.34999 14.7204 5.57891 14.8152 5.81761 14.8152Z" fill="black"/>
</svg>
