<svg width="30" height="30" viewBox="0 0 30 30" fill="none" xmlns="http://www.w3.org/2000/svg">
<path d="M15 10.9375C13.9226 10.9375 12.8892 11.3655 12.1274 12.1274C11.3655 12.8892 10.9375 13.9226 10.9375 15C10.9375 16.0774 11.3655 17.1108 12.1274 17.8726C12.8892 18.6345 13.9226 19.0625 15 19.0625C16.0774 19.0625 17.1108 18.6345 17.8726 17.8726C18.6345 17.1108 19.0625 16.0774 19.0625 15C19.0625 13.9226 18.6345 12.8892 17.8726 12.1274C17.1108 11.3655 16.0774 10.9375 15 10.9375Z" fill="#1E1E1E"/>
<path fill-rule="evenodd" clip-rule="evenodd" d="M15.85 3.5075C15.59 3.36303 15.2975 3.28721 15 3.28721C14.7025 3.28721 14.41 3.36303 14.15 3.5075L5.15 8.5075C4.87718 8.6591 4.64986 8.8809 4.49161 9.14992C4.33337 9.41894 4.24995 9.72539 4.25 10.0375V19.9625C4.25 20.5988 4.595 21.1838 5.15 21.4925L14.15 26.4925C14.41 26.637 14.7025 26.7128 15 26.7128C15.2975 26.7128 15.59 26.637 15.85 26.4925L24.85 21.4925C25.1226 21.341 25.3498 21.1194 25.5081 20.8506C25.6663 20.5818 25.7498 20.2757 25.75 19.9638V10.0375C25.7501 9.72539 25.6666 9.41894 25.5084 9.14992C25.3501 8.8809 25.1228 8.6591 24.85 8.5075L15.85 3.5075ZM9.0625 15C9.0625 13.4253 9.68806 11.9151 10.8016 10.8016C11.9151 9.68806 13.4253 9.0625 15 9.0625C16.5747 9.0625 18.0849 9.68806 19.1984 10.8016C20.3119 11.9151 20.9375 13.4253 20.9375 15C20.9375 16.5747 20.3119 18.085 19.1984 19.1984C18.0849 20.3119 16.5747 20.9375 15 20.9375C13.4253 20.9375 11.9151 20.3119 10.8016 19.1984C9.68806 18.085 9.0625 16.5747 9.0625 15Z" fill="#1E1E1E"/>
</svg>
