<svg width="38" height="38" viewBox="0 0 38 38" fill="none" xmlns="http://www.w3.org/2000/svg">
<path d="M18.2084 4.75C22.1977 4.75 26.0236 6.33474 28.8444 9.1556C31.6653 11.9765 33.25 15.8024 33.25 19.7917C33.25 23.781 31.6653 27.6069 28.8444 30.4277C26.0236 33.2486 22.1977 34.8333 18.2084 34.8333C14.2191 34.8333 10.3931 33.2486 7.57229 30.4277C4.75143 27.6069 3.16669 23.781 3.16669 19.7917C3.16669 15.8024 4.75143 11.9765 7.57229 9.1556C10.3931 6.33474 14.2191 4.75 18.2084 4.75ZM18.2084 6.33333C14.639 6.33333 11.2158 7.75126 8.69188 10.2752C6.16795 12.7991 4.75002 16.2223 4.75002 19.7917C4.75002 23.361 6.16795 26.7842 8.69188 29.3081C11.2158 31.8321 14.639 33.25 18.2084 33.25C19.9757 33.25 21.7258 32.9019 23.3586 32.2255C24.9915 31.5492 26.4751 30.5579 27.7248 29.3081C28.9746 28.0584 29.9659 26.5748 30.6422 24.9419C31.3186 23.3091 31.6667 21.559 31.6667 19.7917C31.6667 16.2223 30.2488 12.7991 27.7248 10.2752C25.2009 7.75126 21.7777 6.33333 18.2084 6.33333Z" fill="#C5D9E0"/>
</svg>
